<svg xmlns="http://www.w3.org/2000/svg" width="1200" height="800" viewBox="0 0 1200 800">
  <defs><linearGradient id="s" x1="0" y1="0" x2="0" y2="1"><stop offset="0" stop-color="#ffd9c7"/><stop offset="1" stop-color="#d4e8fb"/></linearGradient></defs>
  <rect width="1200" height="800" fill="url(#s)"/>
  <g stroke="#17507f" stroke-width="3"><path d="M200 330Q230 460 300 560"/><path d="M1000 300Q960 440 900 560"/><path d="M360 270Q340 420 450 560"/><path d="M820 250Q860 420 760 560"/></g>
  <circle cx="200" cy="300" r="62" fill="#ff9aa2"/><circle cx="1000" cy="270" r="62" fill="#8fcbf3"/><circle cx="360" cy="240" r="56" fill="#ffe08a"/><circle cx="820" cy="220" r="56" fill="#b9a8f0"/>
  <rect x="0" y="560" width="1200" height="240" fill="#fff"/>
  <rect x="0" y="560" width="1200" height="14" fill="#dbeaf7"/>
  <g transform="translate(600 560)"><rect x="-190" y="-120" width="380" height="120" rx="14" fill="#fff4dc" stroke="#17507f" stroke-width="3"/><rect x="-190" y="-120" width="380" height="42" rx="14" fill="#ff9aa2"/><path d="M-190 -78Q-160 -52 -130 -78T-70 -78T-10 -78T50 -78T110 -78T170 -78V-78" fill="none" stroke="#fff" stroke-width="8"/><rect x="-120" y="-190" width="240" height="70" rx="12" fill="#fff" stroke="#17507f" stroke-width="3"/><rect x="-120" y="-190" width="240" height="26" rx="12" fill="#8fcbf3"/>
  <g stroke="#17507f" stroke-width="3"><path d="M-60 -190V-236M0 -190V-246M60 -190V-236"/></g><g fill="#ffd34e"><path d="M-60 -236q-14 -22 0 -30q14 8 0 30z"/><path d="M0 -246q-14 -22 0 -30q14 8 0 30z"/><path d="M60 -236q-14 -22 0 -30q14 8 0 30z"/></g></g>
  <rect x="330" y="700" width="540" height="56" rx="28" fill="#eaf4fc"/>
  <text x="600" y="737" text-anchor="middle" font-family="Arial, sans-serif" font-size="28" font-weight="700" fill="#17507f">[PLACEHOLDER: puzzle photo 3]</text>
</svg>
